<?xml version="1.0" standalone="no"?>
<!DOCTYPE svg PUBLIC "-//W3C//DTD SVG 20010904//EN"
 "http://www.w3.org/TR/2001/REC-SVG-20010904/DTD/svg10.dtd">
<svg version="1.0" xmlns="http://www.w3.org/2000/svg"
 width="720.000000pt" height="720.000000pt" viewBox="0 0 720.000000 720.000000"
 preserveAspectRatio="xMidYMid meet">
<metadata>
Created by potrace 1.14, written by Peter Selinger 2001-2017
</metadata>
<g transform="translate(0.000000,720.000000) scale(0.100000,-0.100000)"
fill="#000000" stroke="none">
<path d="M2750 6658 c-41 -16 -79 -33 -84 -39 -6 -5 -21 -9 -33 -9 -55 0 -168
-88 -157 -122 4 -12 0 -18 -11 -18 -17 0 -64 -48 -65 -65 0 -9 -59 -139 -79
-175 -6 -11 -24 -14 -66 -13 -48 2 -55 0 -45 -12 7 -8 19 -14 28 -13 39 3 52
-3 52 -23 0 -16 -4 -19 -21 -14 -18 6 -19 4 -11 -12 16 -29 -1 -49 -30 -36
-16 7 -28 7 -40 0 -12 -8 -21 -7 -32 2 -18 15 -21 47 -6 56 12 7 13 25 2 25
-13 0 -32 -54 -26 -75 3 -14 -5 -29 -25 -49 -17 -17 -31 -35 -31 -41 0 -7 -10
-16 -22 -22 -17 -7 -31 -4 -65 15 -38 21 -43 22 -43 7 0 -13 -6 -16 -26 -12
-14 2 -38 -2 -53 -9 -14 -8 -34 -14 -44 -14 -10 0 -30 -6 -45 -14 -15 -7 -45
-16 -67 -20 -22 -4 -70 -17 -107 -28 -50 -16 -65 -25 -57 -34 7 -9 -1 -18 -28
-34 -21 -12 -45 -26 -53 -31 -8 -5 -31 -17 -50 -28 -19 -11 -58 -42 -86 -70
-39 -38 -50 -56 -47 -74 3 -14 -13 -56 -42 -114 -26 -51 -45 -98 -42 -105 3
-8 9 -2 16 15 11 29 26 35 35 15 5 -10 7 -10 12 -1 3 7 14 23 24 35 l18 23 7
-38 c7 -34 25 -53 25 -24 0 6 7 25 15 41 9 16 14 35 11 42 -3 7 4 16 15 19 11
4 31 24 46 46 27 41 47 49 57 23 6 -17 -4 -37 -79 -148 -25 -37 -45 -76 -45
-86 0 -10 -4 -20 -8 -22 -11 -4 -52 -180 -52 -223 0 -23 5 -35 14 -35 15 0 26
-21 26 -51 0 -11 -7 -19 -16 -19 -11 0 -14 -5 -10 -16 3 -9 6 -18 6 -21 0 -3
7 0 16 8 13 10 17 10 24 -1 5 -8 5 -21 0 -30 -5 -9 -3 -25 6 -40 7 -14 13 -44
14 -67 0 -23 5 -65 11 -95 28 -145 43 -206 57 -235 13 -27 13 -39 3 -73 -18
-60 -49 -72 -179 -70 -146 2 -140 4 -157 -29 -10 -21 -13 -43 -8 -77 5 -37 8
-43 14 -29 7 18 8 17 9 -5 1 -14 2 -46 2 -72 0 -40 3 -48 19 -48 10 0 21 -4
24 -10 3 -5 -3 -10 -15 -10 -12 0 -18 -4 -15 -10 16 -26 63 2 56 34 -1 5 5 4
13 -4 18 -14 22 -25 6 -15 -5 3 -10 1 -10 -4 0 -6 9 -11 20 -11 26 0 60 -34
60 -59 0 -11 5 -23 12 -27 7 -5 5 -11 -7 -21 -11 -7 -15 -13 -11 -13 4 0 -1
-15 -12 -34 -13 -21 -16 -36 -10 -38 6 -2 4 -10 -6 -20 -9 -9 -16 -21 -16 -27
0 -6 -16 -19 -35 -28 -19 -9 -35 -23 -35 -30 0 -7 -5 -13 -11 -13 -6 0 -9 -7
-5 -15 3 -9 0 -15 -9 -15 -8 0 -15 -8 -15 -17 0 -14 -2 -15 -9 -4 -14 22 -21
-34 -17 -136 3 -51 6 -96 8 -100 2 -5 3 -19 1 -33 -2 -14 -3 -36 -4 -50 -1
-34 -29 -92 -51 -108 -10 -7 -18 -19 -18 -25 0 -7 -12 -29 -26 -50 -25 -38
-25 -38 -9 -90 19 -59 23 -69 59 -150 14 -32 26 -64 26 -71 0 -8 7 -16 15 -20
8 -3 15 -14 15 -25 0 -11 9 -22 20 -26 25 -8 81 -66 74 -77 -3 -4 -14 -8 -25
-8 -11 0 -18 4 -15 9 3 4 -6 6 -19 3 -29 -5 -24 -19 12 -33 25 -9 25 -10 8
-29 -19 -21 -41 -28 -30 -10 7 12 -12 40 -26 40 -5 0 -9 -5 -9 -11 0 -5 5 -7
10 -4 5 3 10 -1 10 -10 0 -9 -5 -13 -10 -10 -16 10 -35 -6 -19 -16 11 -7 9 -9
-6 -7 -11 0 -31 0 -44 0 -20 -2 -22 -4 -10 -18 11 -13 7 -15 -37 -14 -66 1
-87 -1 -99 -11 -6 -4 -39 -10 -75 -13 -68 -7 -106 5 -120 34 -4 8 -12 24 -17
35 -12 24 -12 274 1 293 4 7 32 24 62 38 30 13 54 31 54 38 0 8 5 16 12 18 6
2 12 22 12 44 1 21 5 45 9 52 5 7 4 19 -3 26 -8 11 -8 15 2 18 10 4 8 11 -5
31 -9 14 -17 33 -17 41 0 7 -7 13 -16 12 -9 0 -19 5 -22 13 -3 10 0 12 12 8
23 -9 20 2 -10 30 -25 23 -25 25 -8 38 11 7 20 24 21 37 1 13 7 54 14 91 11
66 7 95 -10 68 -6 -10 -10 -9 -15 4 -9 24 -8 28 9 22 11 -5 12 -1 5 18 -6 16
-6 25 0 25 15 0 12 108 -4 138 -7 15 -18 38 -24 52 -29 72 -44 100 -52 100 -6
0 -10 10 -10 23 0 18 2 19 10 7 7 -11 10 -11 10 -2 0 7 5 10 11 7 6 -4 13 3
16 15 4 13 11 19 20 15 11 -4 13 -1 8 12 -4 10 -8 23 -9 28 -4 21 -39 71 -61
87 -31 23 -91 14 -99 -16 -6 -19 -7 -20 -17 -3 -5 9 -21 17 -34 17 -13 0 -29
8 -34 18 -10 16 -10 16 -11 -1 0 -14 -3 -15 -18 -6 -12 7 -36 9 -64 5 l-45 -7
-2 -61 c-5 -130 -91 -205 -171 -148 -32 22 -55 96 -45 141 9 40 -3 87 -26 99
-20 11 -103 -4 -126 -23 -10 -7 -13 -439 -13 -2098 l0 -2089 2811 0 2811 0 -5
22 c-3 13 -9 46 -12 73 -4 30 -31 100 -66 173 -63 130 -66 141 -47 175 16 32
26 39 98 75 68 35 113 60 226 128 118 71 184 104 197 99 6 -2 27 -6 45 -9 19
-2 42 -12 51 -20 10 -9 21 -16 26 -16 4 0 23 -12 42 -26 33 -25 40 -26 146
-25 62 1 121 3 132 5 59 9 102 20 117 27 18 9 51 2 44 -10 -3 -4 4 -12 15 -19
16 -10 19 -9 19 3 0 8 5 15 11 15 18 0 83 71 101 111 16 35 16 37 -8 62 -13
14 -24 29 -24 33 0 4 -11 17 -26 30 -14 13 -23 24 -20 24 2 0 -3 21 -11 48
-17 54 -25 149 -13 157 4 3 6 15 2 27 -3 13 -1 19 5 15 5 -4 16 11 23 33 7 22
17 37 21 34 5 -3 9 4 9 14 0 16 5 19 22 14 13 -3 19 -1 15 5 -4 6 3 13 15 16
12 4 19 9 15 13 -4 4 -2 13 4 21 9 10 7 13 -9 13 -21 0 -52 34 -52 57 0 7 -10
24 -22 38 -12 13 -23 42 -25 62 -4 41 19 114 43 133 7 7 14 23 14 36 0 15 6
24 15 24 8 0 15 5 15 10 0 6 8 10 18 11 11 0 12 2 4 6 -9 3 -2 13 19 29 39 29
48 31 26 6 -16 -17 -15 -20 3 -40 13 -14 20 -35 20 -60 0 -23 6 -45 15 -52 8
-7 15 -19 15 -26 0 -8 5 -14 10 -14 6 0 10 -5 10 -11 0 -6 10 -25 22 -42 24
-33 33 -77 16 -77 -6 0 -6 -6 2 -15 7 -8 18 -15 26 -15 16 0 36 -34 26 -45 -4
-5 1 -5 11 -2 9 4 17 2 17 -3 0 -18 46 -10 80 12 37 26 60 75 40 88 -8 5 -5 9
10 13 15 4 21 12 20 29 -3 36 1 45 10 23 5 -12 9 66 9 197 l1 216 -37 23 c-21
12 -41 22 -46 21 -4 -1 -40 -4 -81 -5 -52 -3 -81 -9 -99 -23 -15 -10 -27 -22
-27 -26 0 -5 -9 -8 -21 -8 -15 0 -19 -5 -15 -15 3 -9 0 -15 -9 -15 -8 0 -15
-7 -15 -15 0 -20 -4 -19 -48 8 -20 12 -49 29 -64 36 -15 8 -25 18 -22 22 3 5
-15 14 -40 20 -39 10 -47 17 -67 58 -24 52 -42 170 -42 278 1 40 -3 70 -8 67
-5 -3 -9 0 -9 5 0 19 -28 12 -44 -11 -12 -17 -14 -35 -10 -70 6 -44 5 -48 -15
-48 -14 0 -21 -6 -21 -19 0 -11 -9 -21 -22 -24 -26 -7 -68 17 -68 38 0 9 -4
23 -9 33 -49 100 -60 112 -102 112 -65 0 -91 -39 -89 -133 5 -187 5 -194 -13
-221 -30 -46 -74 -60 -146 -48 -34 6 -74 18 -89 26 -59 32 -69 35 -110 24 -34
-8 -43 -16 -56 -49 -9 -22 -16 -43 -16 -48 0 -11 -55 -71 -65 -71 -4 0 -16 11
-26 24 -10 13 -35 27 -54 30 -20 4 -39 14 -42 22 -3 7 -11 14 -18 14 -7 0 -15
7 -19 15 -8 22 -61 18 -107 -8 -32 -18 -41 -19 -48 -8 -7 11 -10 10 -18 -4 -8
-14 -11 -15 -16 -3 -3 10 -16 13 -44 10 -21 -2 -49 -5 -63 -6 -14 0 -28 -5
-32 -11 -5 -6 -12 -4 -18 5 -8 13 -10 12 -10 -3 0 -29 -27 -30 -57 -3 -16 15
-22 26 -14 26 9 0 11 8 7 26 -5 17 -2 32 8 43 8 9 15 19 15 24 0 4 6 27 14 50
8 23 20 66 27 96 l12 53 -35 32 c-19 17 -38 42 -42 56 -11 41 -58 130 -68 130
-5 0 -4 -7 3 -15 21 -25 2 -31 -21 -6 -11 12 -18 29 -15 37 4 10 -3 14 -25 14
-18 0 -28 -4 -24 -10 4 -6 10 -8 15 -5 4 3 6 -4 3 -15 -4 -15 -9 -18 -18 -10
-10 8 -15 8 -20 -1 -5 -7 -24 -9 -51 -6 -31 3 -42 1 -37 -7 4 -6 -5 -3 -19 6
-17 11 -28 14 -30 6 -2 -6 -19 -12 -37 -13 -18 -2 -38 -8 -44 -14 -12 -12 -37
-79 -37 -101 0 -9 -9 -33 -20 -55 -14 -27 -19 -52 -16 -84 2 -25 4 -59 5 -74
1 -16 5 -26 9 -23 4 3 16 -11 27 -30 l18 -34 33 19 c17 11 36 15 40 11 5 -4
18 -10 28 -12 34 -6 26 -98 -9 -98 -7 0 -15 -4 -17 -8 -1 -4 -27 -6 -55 -4
-37 3 -53 8 -53 18 0 8 -7 14 -15 14 -8 0 -15 4 -15 8 0 5 13 7 30 4 16 -2 27
-8 24 -13 -3 -5 7 -9 23 -8 16 0 21 3 13 6 -30 11 -59 45 -52 62 5 14 4 14
-11 2 -9 -7 -17 -10 -17 -7 0 4 -9 2 -20 -4 -11 -6 -20 -16 -19 -23 3 -28 -3
-35 -46 -47 -25 -7 -45 -15 -46 -19 -5 -39 -4 -53 3 -57 4 -3 6 -9 3 -14 -3
-5 10 -6 29 -3 28 4 35 2 41 -16 3 -11 12 -21 19 -21 17 0 51 -38 43 -47 -8
-7 82 -97 155 -155 38 -31 55 -38 90 -38 82 0 114 10 132 41 9 16 22 29 28 29
6 0 17 8 25 18 13 15 14 14 9 -15 -6 -38 5 -42 36 -13 17 16 25 17 42 7 12 -6
26 -10 32 -9 7 1 11 -9 10 -23 0 -14 -4 -25 -8 -25 -4 0 -5 -7 -2 -15 5 -11
-1 -15 -20 -15 -14 0 -26 -4 -26 -10 0 -5 5 -10 10 -10 6 0 10 -4 10 -10 0 -5
-6 -10 -13 -10 -8 0 -18 -10 -24 -22 -41 -86 -54 -119 -48 -128 3 -5 -1 -10
-10 -10 -8 0 -19 -10 -24 -22 -5 -13 -12 -21 -17 -18 -5 3 -15 -15 -22 -40
-25 -82 -41 -108 -70 -114 -39 -9 -112 16 -189 64 -41 27 -120 61 -207 90
-159 54 -224 79 -312 120 -34 16 -88 36 -120 46 -32 9 -71 26 -85 38 -15 11
-34 26 -42 31 -32 20 -40 180 -11 249 5 14 4 17 -4 12 -15 -9 -43 36 -67 109
-21 61 -17 74 20 57 14 -6 27 -7 30 -2 3 5 27 12 52 16 41 6 55 15 100 63 56
60 78 106 70 148 -5 28 26 98 46 105 7 3 33 4 60 4 38 -1 47 2 47 16 0 10 14
40 31 68 27 44 30 55 25 102 -4 28 -13 62 -21 75 -8 12 -15 34 -15 48 0 16 -5
25 -12 23 -22 -8 -50 -78 -52 -134 -3 -46 -8 -60 -29 -80 -15 -14 -27 -31 -27
-38 0 -18 -55 -68 -65 -59 -4 5 -5 3 -1 -4 4 -7 -3 -17 -16 -24 -18 -9 -21 -9
-11 1 6 7 9 19 6 26 -3 8 1 14 11 14 30 0 16 15 -15 17 -18 1 -40 10 -50 19
-11 10 -19 12 -19 6 0 -6 -7 -9 -16 -5 -9 3 -20 0 -25 -8 -8 -12 -11 -12 -19
1 -8 12 -10 12 -10 1 0 -11 -3 -11 -15 -1 -11 9 -19 10 -28 1 -14 -11 -67 6
-67 22 0 5 -9 5 -20 2 -14 -4 -20 -2 -20 9 0 9 -6 13 -14 10 -8 -3 -17 -1 -20
5 -4 6 -20 8 -38 4 -23 -4 -29 -3 -24 6 12 19 -22 81 -44 81 -16 0 -20 7 -20
30 0 30 -4 33 -50 34 -20 1 -25 7 -28 31 -9 105 -31 130 -58 67 -16 -36 -17
-37 -24 -12 -5 14 -8 18 -9 9 -1 -9 -8 -20 -17 -23 -24 -9 -29 0 -11 19 15 14
14 18 -4 36 -11 11 -24 17 -27 13 -4 -3 -1 -9 6 -11 22 -8 13 -31 -15 -36 -19
-3 -31 0 -36 9 -7 11 -12 12 -22 4 -10 -8 -16 -8 -22 2 -4 7 -14 13 -20 14 -7
1 -20 2 -29 3 -9 0 -14 7 -11 14 7 19 -11 45 -20 32 -15 -21 -67 -11 -95 18
-33 32 -38 33 -38 7 0 -30 -17 -24 -35 11 -14 25 -21 30 -41 25 -14 -4 -24 -2
-24 4 0 5 -7 10 -15 10 -8 0 -15 9 -15 20 0 16 -6 20 -32 18 -21 -2 -32 1 -31
9 2 7 -6 10 -19 8 -11 -3 -32 5 -46 16 -19 15 -38 20 -70 18 -24 -2 -46 1 -50
6 -4 6 -18 12 -31 13 -22 3 -23 1 -17 -28 3 -18 6 -38 6 -45 0 -7 8 -12 18
-11 11 1 16 -5 14 -18 -2 -10 0 -25 4 -35 5 -13 8 -12 13 8 l7 25 27 -29 c15
-17 27 -41 28 -55 l0 -25 11 25 c9 21 12 22 15 8 3 -10 9 -18 14 -18 5 0 9 -7
9 -15 0 -8 4 -15 8 -15 5 0 18 -9 30 -20 12 -12 22 -16 22 -10 0 5 4 10 9 10
12 0 9 -53 -4 -62 -6 -5 -3 -8 6 -8 9 0 31 -8 50 -17 l34 -17 -33 -7 c-37 -8
-49 -16 -38 -26 4 -4 11 -1 15 6 5 7 14 11 20 7 8 -5 7 -12 -1 -25 -9 -15 -7
-24 10 -46 12 -15 22 -22 22 -16 0 7 16 0 35 -15 32 -24 52 -66 23 -48 -7 4
-8 3 -4 -5 6 -9 11 -9 22 0 11 9 18 9 26 1 9 -9 8 -12 -6 -12 -10 0 -14 -5
-11 -11 4 -6 14 -8 22 -5 22 9 51 -11 55 -36 2 -14 9 -22 18 -21 22 4 80 -97
80 -138 0 -21 16 -26 23 -6 4 9 7 9 15 -1 7 -11 12 -11 25 2 8 9 21 16 27 16
6 0 13 7 16 15 4 8 12 15 19 15 7 0 15 6 18 13 2 6 7 9 11 5 4 -3 0 -21 -9
-39 -15 -28 -17 -64 -14 -288 4 -249 3 -257 -19 -304 -12 -26 -26 -47 -30 -47
-8 0 -23 -25 -42 -72 -7 -15 -19 -30 -28 -32 -10 -3 -29 -17 -44 -31 -22 -20
-26 -32 -23 -60 4 -28 2 -33 -11 -28 -8 3 -13 12 -10 19 3 8 -1 14 -9 14 -20
0 -19 -29 2 -52 9 -10 13 -21 10 -24 -8 -9 -37 15 -37 30 0 8 -22 12 -67 11
-62 0 -67 -2 -82 -28 -9 -15 -29 -37 -46 -47 -32 -21 -100 -27 -110 -10 -4 6
-11 8 -16 5 -5 -4 -63 -8 -128 -10 l-119 -4 -115 59 c-64 33 -120 60 -126 60
-14 0 -61 31 -176 115 -144 106 -276 191 -346 223 -64 29 -67 32 -152 159 -63
94 -87 138 -87 161 0 17 13 70 29 119 83 253 130 463 161 723 12 105 30 247
35 280 2 14 22 60 43 102 22 43 46 94 52 115 7 21 17 44 23 51 5 7 16 51 24
99 7 48 17 91 22 97 12 15 19 86 9 86 -4 0 -8 5 -8 11 0 5 5 7 11 3 8 -4 9 7
5 37 -3 24 -11 45 -16 47 -6 2 -7 20 -4 42 3 21 2 46 -4 56 -7 13 -6 26 3 45
14 25 11 39 -7 39 -4 0 -8 -9 -8 -19 0 -11 -4 -22 -9 -25 -4 -3 -6 5 -4 18 3
13 0 33 -6 45 -8 15 -9 27 -2 39 10 16 10 15 11 -3 1 -19 1 -19 11 -2 12 21 3
57 -16 57 -16 0 -28 42 -13 51 7 4 8 22 4 48 -10 62 11 219 36 271 33 67 105
139 171 171 32 15 65 36 73 46 10 13 14 14 12 3 -2 -9 4 -14 15 -14 9 1 17 -2
17 -7 0 -5 8 -9 18 -8 9 0 12 3 6 5 -13 5 -7 41 9 62 7 9 22 11 43 8 39 -8 67
2 60 20 -3 8 -2 14 3 14 12 0 41 -46 41 -64 0 -19 20 -32 29 -18 3 6 30 -15
61 -49 30 -32 53 -59 50 -59 -3 0 12 -12 33 -27 20 -14 37 -30 37 -34 0 -5 18
-21 40 -35 22 -15 40 -33 40 -40 0 -8 7 -14 17 -14 21 0 113 -97 113 -120 0
-5 5 -10 10 -10 6 0 10 -6 10 -13 0 -8 9 -22 21 -33 16 -15 22 -16 29 -4 5 8
3 19 -6 27 -8 8 -14 20 -14 26 1 7 10 1 21 -12 11 -14 18 -33 16 -43 -3 -11
-1 -15 5 -12 6 4 24 7 40 6 26 -1 29 2 25 21 -2 12 -8 30 -12 40 -6 15 -4 16
16 9 15 -6 27 -21 32 -43 8 -31 10 -32 17 -13 5 12 13 25 19 29 6 3 11 19 11
34 0 15 8 36 19 45 13 12 19 32 20 69 0 31 6 56 14 62 9 7 12 17 7 31 -13 33
-10 98 3 85 20 -20 26 -12 22 29 -2 22 1 42 6 45 5 4 9 28 9 56 0 36 4 49 14
49 8 0 27 5 43 12 33 13 43 15 106 22 26 3 57 11 68 16 11 6 24 8 30 4 6 -4
14 -2 18 4 12 20 117 19 139 -1 10 -9 21 -15 24 -12 3 3 3 -6 0 -21 -3 -19 -1
-25 7 -20 6 4 9 12 6 17 -4 5 -1 9 4 9 6 0 11 -5 11 -12 0 -9 3 -9 12 0 7 7
21 12 33 12 16 0 14 -4 -12 -21 -18 -12 -33 -25 -33 -30 0 -8 67 -15 94 -10 5
1 16 -5 25 -13 9 -8 29 -18 44 -21 19 -5 26 -12 23 -22 -3 -8 -6 -19 -6 -24 0
-5 -9 -9 -21 -9 -11 0 -17 -4 -14 -10 6 -10 21 -8 65 8 13 5 13 3 1 -11 -12
-15 -10 -18 14 -27 14 -5 31 -10 36 -10 14 0 11 -27 -3 -34 -7 -3 4 -4 24 -2
21 2 35 -1 32 -5 -3 -5 -2 -9 3 -9 10 0 63 -45 63 -54 0 -3 -7 -6 -15 -6 -8 0
-15 -6 -15 -13 0 -19 -41 -42 -50 -27 -5 8 -9 5 -13 -9 -4 -17 -1 -21 18 -21
13 0 30 8 37 18 15 20 87 22 131 4 16 -7 37 -12 47 -12 10 0 22 -4 25 -10 4
-6 -7 -10 -27 -10 -45 0 -292 -63 -312 -79 -26 -22 -20 -44 9 -37 14 4 25 2
25 -4 0 -5 5 -10 11 -10 5 0 7 5 4 10 -12 20 13 9 36 -15 13 -13 32 -25 42
-25 9 0 16 -3 16 -7 -3 -20 2 -26 11 -13 8 13 10 12 10 -3 0 -10 4 -16 9 -13
5 3 14 -1 21 -9 7 -8 27 -17 46 -21 19 -3 34 -10 34 -15 0 -10 31 -12 54 -3 9
3 16 14 16 23 0 10 7 18 15 18 8 0 15 -4 15 -9 0 -21 29 -5 44 25 8 17 16 26
16 20 0 -18 18 -16 37 2 8 8 19 13 24 10 5 -4 9 1 9 10 0 9 16 32 35 51 19 18
35 42 35 51 1 16 2 16 15 -1 13 -17 15 -18 15 -3 0 9 5 17 10 17 6 0 10 -4 10
-10 0 -5 7 -7 15 -4 9 4 15 0 15 -10 0 -9 -4 -16 -10 -16 -5 0 -10 -5 -10 -12
0 -6 -8 -20 -17 -31 -17 -18 -17 -20 17 -48 19 -16 38 -29 43 -29 5 0 16 18
24 40 11 26 22 40 32 38 21 -3 61 11 61 22 0 13 33 21 40 10 4 -7 25 16 49 55
24 37 45 65 47 62 3 -3 1 -13 -4 -24 -5 -10 -14 -31 -19 -48 -6 -16 -14 -39
-18 -50 -4 -12 8 -3 29 20 19 22 44 67 56 100 11 33 25 67 30 75 22 33 32 67
36 115 6 83 14 104 44 120 l27 14 -24 49 c-13 26 -26 66 -29 88 -7 48 -74 238
-85 242 -5 2 -9 11 -9 20 0 10 -6 29 -14 43 -7 15 -32 73 -54 130 -43 109
-101 227 -134 269 -10 14 -43 58 -73 99 -30 41 -100 122 -154 180 -194 205
-283 305 -294 328 -5 12 -28 29 -51 38 -44 18 -96 61 -96 81 0 6 -28 21 -62
33 -35 12 -71 26 -80 31 -10 6 -29 10 -42 10 -14 0 -28 5 -31 10 -3 6 -16 10
-28 10 -25 0 -138 57 -149 74 -4 7 -31 28 -60 48 -62 41 -152 63 -231 56 -40
-4 -59 -1 -82 13 -52 32 -79 42 -117 43 -21 0 -38 4 -38 7 0 4 -19 5 -42 2
-24 -3 -68 -6 -98 -6 -49 -2 -55 -4 -58 -25 -5 -32 -50 -49 -68 -25 -10 14
-15 16 -25 6 -16 -16 -29 -17 -29 -3 0 6 16 20 35 31 19 12 35 25 35 30 0 12
-5 11 -90 -23z m390 -52 c0 -3 -4 -8 -10 -11 -5 -3 -10 -1 -10 4 0 6 5 11 10
11 6 0 10 -2 10 -4z m-160 -25 c0 -16 -29 -33 -51 -29 -22 3 -22 4 -5 21 18
18 56 24 56 8z m-300 -32 c0 -9 -101 -144 -141 -186 -12 -13 -26 -23 -31 -23
-6 0 -7 9 -3 23 4 12 9 34 12 49 3 15 13 28 24 31 11 3 25 20 33 38 7 18 31
44 52 59 38 26 54 29 54 9z m80 -5 c0 -9 -9 -18 -20 -21 -11 -3 -20 -11 -20
-18 0 -21 -36 -55 -59 -55 -19 0 -20 3 -11 20 6 11 16 20 22 20 19 0 47 31 42
45 -5 11 8 19 39 24 4 0 7 -6 7 -15z m838 -61 c2 -8 -5 -13 -17 -13 -12 0 -21
6 -21 16 0 18 31 15 38 -3z m-1117 -78 c-28 -44 -41 -76 -41 -100 0 -28 -5
-37 -24 -44 -13 -5 -26 -19 -29 -30 -3 -12 -12 -21 -21 -21 -19 0 -19 4 -6 28
5 9 23 46 39 82 31 70 113 180 119 161 2 -6 -15 -40 -37 -76z m1619 -175 c0
-5 -7 -7 -15 -4 -8 4 -15 8 -15 10 0 2 7 4 15 4 8 0 15 -4 15 -10z m-2280
-391 c0 -10 -59 -39 -80 -39 -20 0 -10 19 18 34 32 18 62 20 62 5z m-230 -9
c0 -12 -28 -25 -36 -17 -9 9 6 27 22 27 8 0 14 -5 14 -10z m3130 -1173 c0 -7
9 -32 20 -54 27 -56 8 -97 -28 -61 -14 14 -16 128 -2 128 6 0 10 -6 10 -13z
m-1517 -32 c-3 -9 -8 -14 -10 -11 -3 3 -2 9 2 15 9 16 15 13 8 -4z m1527 -225
c-6 -11 -15 -18 -19 -16 -11 7 -2 56 13 75 9 12 12 9 14 -12 2 -14 -2 -35 -8
-47z m-1580 -27 c0 -7 -3 -13 -7 -13 -11 0 -32 48 -25 55 8 8 32 -24 32 -42z
m1012 -91 l-4 -70 -30 12 c-40 15 -78 61 -78 94 1 23 2 25 11 10 5 -10 19 -18
30 -18 13 0 19 6 17 18 -2 12 3 16 20 15 12 -2 22 2 22 8 0 5 3 8 8 6 4 -3 6
-36 4 -75z m500 36 c-7 -7 -12 -8 -12 -2 0 6 3 14 7 17 3 4 9 5 12 2 2 -3 -1
-11 -7 -17z m-437 2 c3 -5 1 -10 -4 -10 -6 0 -11 5 -11 10 0 6 2 10 4 10 3 0
8 -4 11 -10z m-3655 -167 c0 -5 -5 -15 -10 -23 -7 -12 -9 -10 -7 8 1 19 17 33
17 15z m-177 -453 c-3 -11 -9 -20 -14 -20 -14 0 -11 28 4 33 6 3 13 6 14 6 0
1 -1 -8 -4 -19z m312 -129 c3 -5 1 -12 -5 -16 -5 -3 -10 1 -10 9 0 18 6 21 15
7z m75 -61 c0 -5 -2 -10 -4 -10 -3 0 -8 5 -11 10 -3 6 -1 10 4 10 6 0 11 -4
11 -10z m-13 -62 c-3 -8 -6 -5 -6 6 -1 11 2 17 5 13 3 -3 4 -12 1 -19z m2111
-585 c22 -18 1 -16 -22 2 -11 8 -15 19 -10 26 6 10 9 10 12 -1 2 -8 11 -21 20
-27z m-1660 -127 c-13 -10 -15 -15 -6 -24 9 -9 7 -12 -10 -12 -12 0 -22 4 -22
9 0 14 29 41 43 41 7 0 4 -6 -5 -14z m27 -76 c-3 -5 -10 -10 -16 -10 -5 0 -9
5 -9 10 0 6 7 10 16 10 8 0 12 -4 9 -10z m2343 -7 c-2 -9 -8 -18 -15 -20 -7
-3 -9 3 -6 16 6 25 26 28 21 4z m-541 -39 c-3 -4 -14 -3 -24 0 -15 6 -15 8 -3
16 16 10 39 -4 27 -16z m78 -33 c-3 -6 -11 -8 -17 -5 -6 4 -5 9 3 15 16 10 23
4 14 -10z m-2658 -217 c-3 -3 -12 -4 -19 -1 -8 3 -5 6 6 6 11 1 17 -2 13 -5z
m76 -21 c7 -4 23 -8 37 -8 41 -1 91 -16 84 -26 -3 -5 -2 -15 3 -21 4 -7 9 -40
9 -73 1 -33 5 -76 9 -96 8 -41 -16 -99 -40 -99 -8 0 -15 -7 -15 -16 0 -24 -24
-11 -28 15 -3 19 -8 21 -39 16 -25 -4 -41 -1 -54 11 -10 9 -23 13 -28 9 -6 -3
-11 -2 -11 3 0 5 -14 23 -31 40 -29 28 -32 37 -34 99 -2 71 6 93 35 93 9 0 24
8 33 18 16 17 16 19 0 19 -10 0 -21 -4 -24 -10 -4 -5 -12 -6 -19 -2 -10 6 -10
10 2 19 18 13 95 19 111 9z m3092 -53 c3 -5 -3 -10 -14 -10 -12 0 -21 5 -21
10 0 6 6 10 14 10 8 0 18 -4 21 -10z m233 -67 c2 -8 -6 -13 -22 -13 -25 0 -33
10 -19 24 10 10 36 3 41 -11z m2912 -383 c0 -5 -2 -10 -4 -10 -3 0 -8 5 -11
10 -3 6 -1 10 4 10 6 0 11 -4 11 -10z m70 -20 c0 -11 -4 -20 -10 -20 -5 0 -10
9 -10 20 0 11 5 20 10 20 6 0 10 -9 10 -20z m-33 -22 c-3 -8 -6 -5 -6 6 -1 11
2 17 5 13 3 -3 4 -12 1 -19z m-5632 -38 c4 -6 -10 -25 -29 -42 -22 -19 -42
-50 -52 -80 -8 -26 -19 -48 -24 -48 -4 0 -34 -18 -66 -39 -33 -21 -90 -48
-127 -60 l-68 -21 -39 43 c-42 44 -61 100 -41 120 6 6 11 17 11 24 0 23 51 63
80 63 15 0 30 3 34 7 8 8 167 6 209 -3 20 -4 29 -1 33 11 11 27 67 45 79 25z
m4801 -35 c26 -14 56 -25 66 -25 31 0 78 -32 84 -57 3 -12 12 -27 20 -34 17
-14 19 -59 3 -59 -6 0 -9 -9 -6 -20 3 -11 1 -17 -4 -14 -11 6 -28 -9 -54 -49
-10 -15 -20 -25 -23 -22 -3 2 -11 0 -19 -6 -9 -9 -17 -8 -27 0 -10 8 -16 9
-21 1 -3 -5 0 -10 8 -10 16 0 29 -67 15 -76 -4 -3 -8 -16 -8 -29 0 -25 -13
-38 -42 -42 -12 -2 -18 4 -18 16 0 11 -5 23 -11 27 -8 5 -10 -1 -7 -19 5 -23
1 -27 -26 -33 -23 -4 -32 -11 -32 -25 0 -24 1 -24 26 1 12 12 33 20 54 20 39
0 60 -19 24 -21 -17 -1 -18 -3 -5 -6 38 -10 9 -33 -42 -33 -38 0 -75 -28 -61
-45 15 -18 -8 -55 -33 -55 -11 0 -21 -9 -24 -20 -7 -28 -29 -19 -25 9 3 19 0
22 -16 17 -27 -9 -57 36 -42 63 15 28 12 42 -6 39 -10 -2 -19 3 -21 10 -3 7 5
12 21 12 29 0 54 34 34 46 -7 4 -8 3 -4 -4 6 -11 0 -14 -21 -11 -5 1 -7 6 -5
11 2 7 -16 9 -48 6 -28 -3 -53 -2 -55 3 -5 8 78 19 127 18 16 -1 29 -8 31 -18
4 -12 5 -11 6 4 1 19 51 53 51 34 0 -5 15 -8 33 -8 30 2 30 2 5 6 -28 4 -40
23 -15 23 8 0 7 4 -3 10 -13 8 -12 10 3 10 14 0 17 5 12 19 -7 22 27 51 61 51
16 0 21 6 22 30 1 36 -16 49 -33 26 -11 -14 -13 -15 -18 -1 -4 8 -1 14 5 12 7
-1 14 6 16 16 4 18 -15 19 -68 2 -13 -4 -20 -2 -20 7 0 11 -2 11 -9 0 -7 -11
-9 -11 -14 2 -4 9 -12 16 -19 16 -15 0 -48 35 -48 50 0 6 -5 10 -11 10 -19 0
-2 87 23 122 21 31 22 31 94 25 49 -5 87 -15 120 -32z m990 -313 c-11 -10 -15
4 -8 28 l7 25 3 -23 c2 -13 1 -26 -2 -30z m-1516 -102 c11 0 24 -8 29 -17 8
-13 13 -15 18 -6 10 14 94 12 111 -4 9 -9 3 -11 -30 -8 -24 1 -37 1 -30 -2 17
-7 15 -14 -11 -43 -13 -16 -30 -25 -42 -22 -11 2 -16 0 -10 -5 13 -11 17 -64
6 -82 -5 -7 -22 -14 -38 -15 -16 -2 -35 -6 -42 -11 -10 -5 -11 -2 -7 13 4 11
2 23 -4 27 -6 4 -8 16 -4 27 4 13 1 24 -7 29 -11 7 -12 12 -1 29 6 11 12 28
12 39 0 11 -6 22 -12 25 -7 3 -3 3 10 0 19 -5 22 -1 23 23 0 15 3 22 6 16 2
-7 13 -13 23 -13z m-2320 -11 c0 -11 -4 -18 -9 -15 -5 4 -12 0 -15 -6 -3 -7
-3 -3 0 10 3 13 1 22 -6 22 -15 0 -41 -26 -33 -34 4 -3 1 -6 -5 -6 -15 0 -15
6 -2 31 15 28 70 27 70 -2z m50 0 c0 -5 5 -7 10 -4 6 3 10 0 10 -8 0 -7 -6
-14 -12 -15 -7 0 -22 -2 -33 -5 -11 -2 -14 -2 -7 0 7 3 10 9 7 14 -7 11 3 29
16 29 5 0 9 -5 9 -11z m2499 -99 c0 -10 -3 -8 -9 5 -12 27 -12 43 0 25 5 -8 9
-22 9 -30z m241 -14 c0 -8 -3 -21 -6 -30 -5 -13 -8 -13 -20 -1 -17 17 -18 32
-1 38 21 9 27 7 27 -7z m-2810 -673 c0 -15 -2 -16 -10 -3 -5 8 -10 10 -10 4 0
-7 -6 -14 -14 -17 -10 -4 -12 0 -9 14 7 24 43 26 43 2z m31 -93 c-13 -11 -28
-20 -33 -20 -6 0 0 9 13 20 13 10 29 19 34 19 6 0 -1 -9 -14 -19z m-80 -28
c-7 -2 -18 1 -23 6 -8 8 -4 9 13 5 13 -4 18 -8 10 -11z"/>
<path d="M5816 1284 c-5 -12 -2 -15 10 -10 8 3 22 6 30 6 8 0 14 5 14 10 0 17
-47 11 -54 -6z"/>
<path d="M5890 1290 c0 -5 5 -10 10 -10 6 0 10 5 10 10 0 6 -4 10 -10 10 -5 0
-10 -4 -10 -10z"/>
<path d="M5840 1144 c0 -8 5 -12 10 -9 6 3 10 10 10 16 0 5 -4 9 -10 9 -5 0
-10 -7 -10 -16z"/>
<path d="M5443 1274 c-8 -21 1 -26 22 -11 16 13 16 14 1 20 -10 4 -19 1 -23
-9z"/>
<path d="M5522 1253 c-6 -2 -10 -9 -7 -13 7 -11 35 -2 35 11 0 10 -8 10 -28 2z"/>
<path d="M5440 1220 c0 -5 4 -10 9 -10 6 0 13 5 16 10 3 6 -1 10 -9 10 -9 0
-16 -4 -16 -10z"/>
<path d="M5470 1174 c0 -8 5 -12 10 -9 6 4 8 11 5 16 -9 14 -15 11 -15 -7z"/>
<path d="M5430 1164 c0 -8 5 -12 10 -9 6 3 10 10 10 16 0 5 -4 9 -10 9 -5 0
-10 -7 -10 -16z"/>
<path d="M5460 1120 c-9 -6 -10 -10 -3 -10 6 0 15 5 18 10 8 12 4 12 -15 0z"/>
<path d="M1465 5890 c-7 -12 12 -12 40 0 18 8 17 9 -7 9 -15 1 -30 -3 -33 -9z"/>
<path d="M1340 5812 c-33 -15 -70 -45 -70 -57 0 -7 -7 -15 -14 -18 -8 -3 -22
-21 -31 -39 l-16 -33 36 40 c19 22 54 57 78 77 42 37 45 42 17 30z"/>
<path d="M1305 5421 c-3 -5 -1 -12 4 -15 5 -3 11 1 15 9 6 16 -9 21 -19 6z"/>
<path d="M345 4750 c3 -5 8 -10 11 -10 2 0 4 5 4 10 0 6 -5 10 -11 10 -5 0 -7
-4 -4 -10z"/>
<path d="M340 4720 c-12 -7 -12 -10 -1 -10 8 0 11 -6 7 -16 -4 -11 -1 -14 12
-12 18 3 24 39 7 45 -5 1 -17 -2 -25 -7z"/>
<path d="M2255 4553 c-16 -2 -49 -11 -73 -19 -38 -14 -47 -24 -78 -85 -37 -74
-69 -182 -59 -199 4 -6 17 -5 34 5 20 10 31 25 35 50 4 19 18 47 32 62 18 19
21 29 12 34 -8 5 1 20 30 48 34 34 49 41 80 41 48 0 82 -30 62 -54 -13 -16 -6
-71 12 -93 8 -10 14 -10 30 1 12 9 34 12 58 9 30 -4 40 -2 47 13 21 40 -22
111 -91 152 -56 34 -85 41 -131 35z"/>
<path d="M2434 4290 c-5 -5 -38 -17 -73 -26 -94 -24 -135 -51 -147 -99 -3 -14
-10 -28 -15 -31 -12 -7 -11 -37 2 -71 l10 -28 17 28 c9 15 20 27 24 27 5 0 8
7 8 15 0 8 5 15 11 15 5 0 7 -4 4 -10 -12 -20 25 -9 51 15 15 14 35 25 46 25
22 0 38 -32 19 -38 -8 -3 -21 -12 -31 -22 -9 -9 -31 -25 -48 -35 -17 -11 -28
-24 -25 -32 6 -16 3 -16 -34 -3 l-28 11 30 -25 c34 -29 39 -30 66 -16 15 8 19
7 19 -5 0 -9 9 -15 24 -15 13 0 31 -3 40 -6 10 -4 16 -1 16 9 0 10 13 16 39
19 22 2 38 2 36 0 -6 -6 18 -67 29 -74 6 -4 19 -8 29 -8 14 0 17 5 11 22 -3
12 -13 28 -21 36 -9 10 -13 35 -12 81 1 67 -15 121 -36 121 -7 0 -24 -9 -38
-20 -14 -11 -30 -20 -36 -20 -16 0 -13 36 5 50 18 16 44 75 44 101 0 20 -20
25 -36 9z m48 -282 c-12 -12 -42 -4 -42 12 0 7 8 9 20 5 13 -4 20 -2 21 7 0
11 2 10 6 0 3 -8 1 -18 -5 -24z"/>
<path d="M4500 4224 c-15 -38 -12 -54 11 -73 19 -15 20 -20 9 -40 -6 -13 -9
-34 -5 -49 6 -26 7 -26 21 -7 9 12 12 31 8 53 -6 28 -4 33 11 30 10 -2 22 5
29 15 9 15 7 22 -13 38 -13 11 -30 18 -37 15 -7 -3 -16 -1 -19 4 -4 6 -1 10 4
10 6 0 11 7 11 15 0 24 -20 17 -30 -11z"/>
<path d="M2067 4225 c-11 -8 -17 -21 -14 -32 4 -16 5 -16 6 0 0 9 5 17 10 17
5 0 11 7 15 15 7 18 6 18 -17 0z"/>
<path d="M2150 3961 c0 -12 29 -41 40 -41 20 0 20 22 1 27 -12 3 -21 9 -21 14
0 5 -4 9 -10 9 -5 0 -10 -4 -10 -9z"/>
<path d="M2550 3876 c0 -9 -4 -16 -10 -16 -5 0 -10 -4 -10 -10 0 -14 13 -13
34 3 16 12 16 14 2 26 -14 11 -16 11 -16 -3z"/>
<path d="M2100 3831 c0 -5 7 -14 15 -21 8 -7 15 -22 15 -34 0 -12 9 -27 20
-34 17 -10 20 -9 26 12 4 17 -2 31 -26 55 -31 31 -50 39 -50 22z"/>
<path d="M2022 3808 c6 -18 28 -21 28 -4 0 9 -7 16 -16 16 -9 0 -14 -5 -12
-12z"/>
<path d="M4590 3760 c0 -5 5 -10 10 -10 6 0 10 5 10 10 0 6 -4 10 -10 10 -5 0
-10 -4 -10 -10z"/>
<path d="M2056 3752 c-3 -6 -1 -14 5 -17 15 -10 25 3 12 16 -7 7 -13 7 -17 1z"/>
<path d="M2190 3744 c0 -8 5 -12 10 -9 6 3 10 10 10 16 0 5 -4 9 -10 9 -5 0
-10 -7 -10 -16z"/>
<path d="M2235 3730 c3 -5 8 -10 11 -10 2 0 4 5 4 10 0 6 -5 10 -11 10 -5 0
-7 -4 -4 -10z"/>
<path d="M2076 3703 c-6 -14 -5 -15 5 -6 7 7 10 15 7 18 -3 3 -9 -2 -12 -12z"/>
<path d="M2246 3695 c-4 -12 0 -14 22 -9 15 4 24 3 19 -1 -9 -10 51 -75 70
-75 7 0 13 -7 13 -15 0 -8 7 -15 15 -15 8 0 12 -6 9 -14 -6 -16 16 -23 74 -22
27 1 42 -3 42 -11 0 -18 17 -16 24 3 3 8 10 13 15 10 5 -3 14 7 21 23 6 16 20
37 31 47 10 9 19 25 19 35 0 26 -12 52 -19 42 -13 -20 -94 -53 -127 -53 -38 0
-146 33 -181 56 -28 18 -39 18 -47 -1z"/>
<path d="M4271 3683 c2 -16 -14 -53 -22 -53 -5 0 -9 -9 -9 -20 0 -11 -5 -17
-12 -15 -10 4 -13 -15 -12 -75 1 -67 4 -83 21 -97 11 -10 18 -24 15 -32 -3
-10 1 -12 16 -9 12 4 30 -3 47 -18 28 -24 95 -34 95 -15 0 16 46 6 75 -17 24
-19 30 -20 44 -9 9 8 46 29 83 47 43 21 75 44 87 64 24 37 17 51 -8 17 l-18
-24 -7 24 c-8 24 -8 24 -14 3 -6 -18 -9 -20 -19 -9 -10 10 -9 16 2 25 8 7 15
15 15 19 0 13 -66 5 -83 -10 -10 -10 -31 -19 -45 -22 -15 -3 -45 -10 -66 -16
-22 -5 -44 -7 -50 -4 -17 11 -56 9 -56 -2 0 -5 -5 -2 -11 8 -6 9 -14 15 -20
12 -8 -5 -14 53 -11 105 0 7 -6 27 -15 43 -18 36 -10 66 12 47 20 -17 21 6 1
26 -15 15 -37 19 -35 7z"/>
<path d="M4330 3640 c0 -5 7 -10 16 -10 8 0 12 5 9 10 -3 6 -10 10 -16 10 -5
0 -9 -4 -9 -10z"/>
<path d="M4943 3516 c-40 -19 -28 -128 12 -112 13 5 16 2 11 -11 -6 -14 -5
-15 5 -6 13 13 14 123 1 134 -4 3 -17 1 -29 -5z"/>
<path d="M4440 3080 c-19 -4 -70 -15 -113 -24 -43 -9 -82 -14 -87 -11 -5 3
-11 1 -14 -4 -3 -5 -17 -12 -31 -15 -15 -4 -48 -28 -75 -55 -47 -47 -55 -66
-22 -54 10 4 13 2 8 -5 -4 -7 -2 -12 3 -12 6 0 11 5 11 10 0 18 32 10 37 -9 3
-13 10 -18 21 -14 10 4 13 2 8 -5 -4 -7 -2 -12 3 -12 6 0 11 -9 11 -21 0 -15
4 -19 19 -14 16 5 18 2 14 -15 -5 -21 -12 -23 -49 -21 -24 2 -57 -26 -48 -40
3 -6 6 -26 6 -46 0 -38 36 -90 45 -65 6 16 54 15 77 -3 18 -13 23 -12 55 12
20 15 42 33 49 40 8 7 22 18 33 24 28 15 39 50 23 74 -9 13 -10 25 -4 35 13
20 13 33 0 25 -15 -9 -38 17 -32 37 3 12 11 16 26 13 15 -4 33 6 68 39 54 53
69 97 42 127 -18 20 -28 21 -84 9z"/>
<path d="M1120 2854 c0 -8 5 -12 10 -9 6 4 8 11 5 16 -9 14 -15 11 -15 -7z"/>
<path d="M4830 2811 c-5 -11 -10 -28 -10 -37 0 -10 -7 -25 -15 -34 -10 -11
-13 -27 -9 -48 7 -34 46 -82 52 -64 5 16 23 15 20 0 -2 -8 5 -12 15 -10 11 2
24 -3 30 -11 7 -8 24 -17 38 -21 36 -8 52 24 45 94 -2 30 -5 61 -5 68 -1 6
-10 12 -21 12 -21 0 -69 26 -82 45 -5 6 -8 6 -8 0 0 -5 -5 -2 -11 8 -13 22
-26 22 -39 -2z"/>
<path d="M3235 2770 c-3 -5 1 -10 9 -10 9 0 16 5 16 10 0 6 -4 10 -9 10 -6 0
-13 -4 -16 -10z"/>
<path d="M3430 2730 c0 -5 5 -10 11 -10 5 0 7 5 4 10 -3 6 -8 10 -11 10 -2 0
-4 -4 -4 -10z"/>
<path d="M3660 2700 c0 -5 4 -10 9 -10 6 0 13 5 16 10 3 6 -1 10 -9 10 -9 0
-16 -4 -16 -10z"/>
<path d="M2840 2690 c0 -5 5 -10 10 -10 6 0 10 5 10 10 0 6 -4 10 -10 10 -5 0
-10 -4 -10 -10z"/>
<path d="M2906 2655 c4 -8 8 -15 10 -15 2 0 4 7 4 15 0 8 -4 15 -10 15 -5 0
-7 -7 -4 -15z"/>
<path d="M2878 2633 c7 -3 16 -2 19 1 4 3 -2 6 -13 5 -11 0 -14 -3 -6 -6z"/>
<path d="M3700 2610 c0 -5 5 -10 11 -10 5 0 7 5 4 10 -3 6 -8 10 -11 10 -2 0
-4 -4 -4 -10z"/>
<path d="M2871 2584 c0 -11 3 -14 6 -6 3 7 2 16 -1 19 -3 4 -6 -2 -5 -13z"/>
<path d="M2910 2551 c-7 -15 -6 -23 6 -35 18 -18 34 -21 34 -6 0 6 -7 10 -16
10 -12 0 -15 6 -10 25 8 30 1 33 -14 6z"/>
<path d="M3720 2549 c0 -5 5 -7 10 -4 6 3 10 8 10 11 0 2 -4 4 -10 4 -5 0 -10
-5 -10 -11z"/>
<path d="M4970 2526 c0 -9 5 -16 10 -16 6 0 10 4 10 9 0 6 -4 13 -10 16 -5 3
-10 -1 -10 -9z"/>
<path d="M3750 2496 c0 -23 16 -27 17 -5 1 10 -2 19 -8 19 -5 0 -9 -6 -9 -14z"/>
<path d="M4194 2406 c5 -15 2 -17 -13 -13 -14 3 -18 1 -14 -9 6 -17 17 -18 31
-1 8 9 8 17 0 27 -8 12 -9 11 -4 -4z"/>
<path d="M6772 2328 c2 -13 9 -22 16 -20 6 1 12 -2 12 -8 0 -5 7 -10 15 -10 8
0 15 4 15 9 0 5 6 11 13 14 6 2 0 2 -15 0 -14 -2 -29 1 -33 6 -3 6 1 11 11 11
23 0 10 13 -17 17 -16 2 -20 -2 -17 -19z"/>
<path d="M6726 2324 c-11 -7 -17 -16 -15 -19 3 -3 14 2 25 9 10 8 17 17 14 19
-3 3 -14 -1 -24 -9z"/>
<path d="M6796 2258 c3 -4 9 -8 15 -8 5 0 9 4 9 8 0 5 -7 9 -15 9 -8 0 -12 -4
-9 -9z"/>
<path d="M3176 1961 c16 -39 16 -51 0 -51 -9 0 -16 -4 -16 -10 0 -5 -7 -10
-17 -10 -14 0 -14 -2 2 -20 16 -18 16 -20 2 -20 -20 0 -22 -29 -4 -54 13 -18
15 -17 37 15 14 19 33 40 43 48 16 11 47 68 47 86 0 3 -9 5 -19 5 -10 0 -21 6
-24 14 -3 7 -17 14 -32 14 -20 0 -25 -4 -19 -17z m31 -23 c-3 -8 -6 -5 -6 6
-1 11 2 17 5 13 3 -3 4 -12 1 -19z"/>
<path d="M4465 1870 c3 -5 10 -10 16 -10 5 0 9 5 9 10 0 6 -7 10 -16 10 -8 0
-12 -4 -9 -10z"/>
<path d="M2975 1570 c-3 -5 3 -10 15 -10 12 0 18 5 15 10 -3 6 -10 10 -15 10
-5 0 -12 -4 -15 -10z"/>
<path d="M3020 1550 c0 -5 5 -10 10 -10 6 0 10 5 10 10 0 6 -4 10 -10 10 -5 0
-10 -4 -10 -10z"/>
<path d="M7192 616 c-1 -10 -8 -24 -16 -30 -8 -6 -17 -25 -20 -42 -5 -23 -2
-35 13 -48 27 -25 33 -9 28 75 -2 35 -4 55 -5 45z"/>
</g>
</svg>
